RobotoSerifText-RegularCond.ufo
<glyph name="parenleft" format="2">
  <advance width="274"/>
  <unicode hex="0028"/>
  <outline>
    <contour>
      <point x="123" y="310" type="curve" smooth="yes"/>
      <point x="123" y="110"/>
      <point x="201" y="-48"/>
      <point x="270" y="-127" type="curve"/>
      <point x="270" y="-130" type="line"/>
      <point x="208" y="-130" type="line"/>
      <point x="118" y="-51"/>
      <point x="39" y="116"/>
      <point x="39" y="310" type="curve" smooth="yes"/>
      <point x="39" y="504"/>
      <point x="118" y="671"/>
      <point x="208" y="750" type="curve"/>
      <point x="270" y="750" type="line"/>
      <point x="270" y="747" type="line"/>
      <point x="201" y="668"/>
      <point x="123" y="510"/>
    </contour>
  </outline>
</glyph>
<glyph name="six" format="2">
  <advance width="462"/>
  <unicode hex="0036"/>
  <outline>
    <contour>
      <point x="375" y="686" type="line"/>
      <point x="221" y="652"/>
      <point x="117" y="497"/>
      <point x="117" y="293" type="curve" smooth="yes"/>
      <point x="117" y="119"/>
      <point x="167" y="44"/>
      <point x="239" y="44" type="curve" smooth="yes"/>
      <point x="304" y="44"/>
      <point x="343" y="121"/>
      <point x="343" y="230" type="curve" smooth="yes"/>
      <point x="343" y="332"/>
      <point x="313" y="400"/>
      <point x="250" y="400" type="curve" smooth="yes"/>
      <point x="182" y="400"/>
      <point x="134" y="333"/>
      <point x="104" y="248" type="curve"/>
      <point x="95" y="294" type="line"/>
      <point x="117" y="373"/>
      <point x="179" y="454"/>
      <point x="265" y="454" type="curve" smooth="yes"/>
      <point x="361" y="454"/>
      <point x="433" y="368"/>
      <point x="433" y="230" type="curve" smooth="yes"/>
      <point x="433" y="93"/>
      <point x="351" y="-10"/>
      <point x="240" y="-10" type="curve" smooth="yes"/>
      <point x="119" y="-10"/>
      <point x="29" y="94"/>
      <point x="29" y="293" type="curve" smooth="yes"/>
      <point x="29" y="511"/>
      <point x="165" y="702"/>
      <point x="366" y="740" type="curve"/>
    </contour>
  </outline>
</glyph>
<glyph name="less" format="2">
  <advance width="462"/>
  <unicode hex="003C"/>
  <outline>
    <contour>
      <point x="385" y="543" type="line"/>
      <point x="78" y="372" type="line"/>
      <point x="78" y="338" type="line"/>
      <point x="94" y="323" type="line"/>
      <point x="385" y="480" type="line"/>
    </contour>
    <contour>
      <point x="385" y="212" type="line"/>
      <point x="95" y="369" type="line"/>
      <point x="78" y="355" type="line"/>
      <point x="78" y="312" type="line"/>
      <point x="385" y="142" type="line"/>
    </contour>
  </outline>
</glyph>
<glyph name="T" format="2">
  <advance width="559"/>
  <unicode hex="0054"/>
  <anchor x="284" y="741" name="top"/>
  <anchor x="284" y="0" name="bottom"/>
  <outline>
    <contour>
      <point x="234" y="80" type="line" smooth="yes"/>
      <point x="234" y="51"/>
      <point x="206" y="44"/>
      <point x="168" y="44" type="curve" smooth="yes"/>
      <point x="155" y="44" type="line"/>
      <point x="155" y="0" type="line"/>
      <point x="404" y="0" type="line"/>
      <point x="404" y="44" type="line"/>
      <point x="391" y="44" type="line" smooth="yes"/>
      <point x="353" y="44"/>
      <point x="325" y="51"/>
      <point x="325" y="80" type="curve" smooth="yes"/>
      <point x="325" y="659" type="line"/>
      <point x="368" y="659" type="line" smooth="yes"/>
      <point x="438" y="659"/>
      <point x="467" y="652"/>
      <point x="469" y="616" type="curve" smooth="yes"/>
      <point x="477" y="518" type="line"/>
      <point x="527" y="518" type="line"/>
      <point x="527" y="710" type="line"/>
      <point x="32" y="710" type="line"/>
      <point x="32" y="518" type="line"/>
      <point x="82" y="518" type="line"/>
      <point x="90" y="616" type="line" smooth="yes"/>
      <point x="92" y="652"/>
      <point x="121" y="659"/>
      <point x="190" y="659" type="curve" smooth="yes"/>
      <point x="234" y="659" type="line"/>
    </contour>
  </outline>
</glyph>
<glyph name="v" format="2">
  <advance width="479"/>
  <unicode hex="0076"/>
  <outline>
    <contour>
      <point x="369" y="447" type="curve"/>
      <point x="253" y="49" type="line"/>
      <point x="263" y="50" type="line"/>
      <point x="143" y="457" type="line"/>
      <point x="143" y="464"/>
      <point x="179" y="466"/>
      <point x="213" y="466" type="curve" smooth="yes"/>
      <point x="214" y="466" type="line"/>
      <point x="214" y="508" type="line"/>
      <point x="5" y="508" type="line"/>
      <point x="5" y="466" type="line"/>
      <point x="6" y="466" type="line" smooth="yes"/>
      <point x="36" y="466"/>
      <point x="55" y="459"/>
      <point x="64" y="432" type="curve" smooth="yes"/>
      <point x="198" y="0" type="line"/>
      <point x="286" y="0" type="line"/>
      <point x="416" y="426" type="line" smooth="yes"/>
      <point x="426" y="458"/>
      <point x="450" y="466"/>
      <point x="473" y="466" type="curve" smooth="yes"/>
      <point x="475" y="466" type="line"/>
      <point x="475" y="508" type="line"/>
      <point x="301" y="508" type="line"/>
      <point x="301" y="466" type="line"/>
      <point x="303" y="466" type="line" smooth="yes"/>
      <point x="334" y="466"/>
      <point x="367" y="458"/>
    </contour>
  </outline>
</glyph>
<glyph name="Aogonek" format="2">
  <advance width="580"/>
  <unicode hex="0104"/>
  <outline>
    <contour>
      <point x="151" y="300" type="line"/>
      <point x="146" y="249" type="line"/>
      <point x="396" y="249" type="line"/>
      <point x="395" y="300" type="line"/>
    </contour>
    <contour>
      <point x="462" y="39" type="line"/>
      <point x="369" y="-20"/>
      <point x="311" y="-75"/>
      <point x="311" y="-144" type="curve" smooth="yes"/>
      <point x="311" y="-201"/>
      <point x="349" y="-235"/>
      <point x="403" y="-235" type="curve" smooth="yes"/>
      <point x="448" y="-235"/>
      <point x="472" y="-216"/>
      <point x="494" y="-188" type="curve"/>
      <point x="468" y="-157" type="line"/>
      <point x="458" y="-171"/>
      <point x="443" y="-188"/>
      <point x="424" y="-188" type="curve" smooth="yes"/>
      <point x="406" y="-188"/>
      <point x="392" y="-171"/>
      <point x="392" y="-137" type="curve" smooth="yes"/>
      <point x="392" y="-93"/>
      <point x="411" y="-45"/>
      <point x="489" y="7" type="curve"/>
    </contour>
    <contour>
      <point x="573" y="0" type="line"/>
      <point x="573" y="44" type="line"/>
      <point x="569" y="44" type="line"/>
      <point x="542" y="44"/>
      <point x="524" y="46"/>
      <point x="517" y="72" type="curve" smooth="yes"/>
      <point x="336" y="710" type="line"/>
      <point x="240" y="710" type="line"/>
      <point x="66" y="87" type="line" smooth="yes"/>
      <point x="56" y="50"/>
      <point x="40" y="44"/>
      <point x="11" y="44" type="curve"/>
      <point x="7" y="44" type="line"/>
      <point x="7" y="0" type="line"/>
      <point x="192" y="0" type="line"/>
      <point x="192" y="44" type="line"/>
      <point x="180" y="44" type="line" smooth="yes"/>
      <point x="150" y="44"/>
      <point x="114" y="51"/>
      <point x="114" y="62" type="curve"/>
      <point x="279" y="670" type="line"/>
      <point x="260" y="678" type="line"/>
      <point x="446" y="0" type="line"/>
    </contour>
  </outline>
</glyph>
<glyph name="Ldot" format="2">
  <advance width="516"/>
  <unicode hex="013F"/>
  <outline>
    <contour>
      <point x="281" y="710" type="line"/>
      <point x="281" y="666" type="line"/>
      <point x="271" y="666" type="line" smooth="yes"/>
      <point x="230" y="666"/>
      <point x="201" y="659"/>
      <point x="201" y="630" type="curve" smooth="yes"/>
      <point x="201" y="53" type="line"/>
      <point x="316" y="53" type="line" smooth="yes"/>
      <point x="386" y="53"/>
      <point x="416" y="60"/>
      <point x="418" y="96" type="curve" smooth="yes"/>
      <point x="426" y="218" type="line"/>
      <point x="479" y="218" type="line"/>
      <point x="479" y="0" type="line"/>
      <point x="35" y="0" type="line"/>
      <point x="35" y="44" type="line"/>
      <point x="44" y="44" type="line" smooth="yes"/>
      <point x="83" y="44"/>
      <point x="111" y="51"/>
      <point x="111" y="80" type="curve" smooth="yes"/>
      <point x="111" y="630" type="line" smooth="yes"/>
      <point x="111" y="659"/>
      <point x="83" y="666"/>
      <point x="44" y="666" type="curve" smooth="yes"/>
      <point x="35" y="666" type="line"/>
      <point x="35" y="710" type="line"/>
    </contour>
    <component base="periodcentered" xOffset="310" yOffset="49"/>
  </outline>
</glyph>
<glyph name="Eng" format="2">
  <advance width="656"/>
  <unicode hex="014A"/>
  <outline>
    <contour>
      <point x="404" y="-212" type="curve" smooth="yes"/>
      <point x="374" y="-212"/>
      <point x="338" y="-205"/>
      <point x="320" y="-198" type="curve"/>
      <point x="320" y="-139" type="line"/>
      <point x="341" y="-147"/>
      <point x="371" y="-155"/>
      <point x="401" y="-155" type="curve" smooth="yes"/>
      <point x="454" y="-155"/>
      <point x="494" y="-115"/>
      <point x="494" y="-13" type="curve" smooth="yes"/>
      <point x="494" y="26" type="line"/>
      <point x="526" y="-73" type="line"/>
      <point x="154" y="676" type="line"/>
      <point x="167" y="680" type="line"/>
      <point x="167" y="59" type="line" smooth="yes"/>
      <point x="167" y="52"/>
      <point x="206" y="44"/>
      <point x="240" y="44" type="curve" smooth="yes"/>
      <point x="251" y="44" type="line"/>
      <point x="251" y="0" type="line"/>
      <point x="35" y="0" type="line"/>
      <point x="35" y="44" type="line"/>
      <point x="44" y="44" type="line" smooth="yes"/>
      <point x="83" y="44"/>
      <point x="111" y="56"/>
      <point x="111" y="85" type="curve" smooth="yes"/>
      <point x="111" y="630" type="line" smooth="yes"/>
      <point x="111" y="659"/>
      <point x="83" y="666"/>
      <point x="44" y="666" type="curve" smooth="yes"/>
      <point x="35" y="666" type="line"/>
      <point x="35" y="710" type="line"/>
      <point x="232" y="710" type="line"/>
      <point x="524" y="92" type="line"/>
      <point x="494" y="77" type="line"/>
      <point x="494" y="651" type="line" smooth="yes"/>
      <point x="494" y="658"/>
      <point x="456" y="666"/>
      <point x="422" y="666" type="curve" smooth="yes"/>
      <point x="410" y="666" type="line"/>
      <point x="410" y="710" type="line"/>
      <point x="626" y="710" type="line"/>
      <point x="626" y="666" type="line"/>
      <point x="617" y="666" type="line" smooth="yes"/>
      <point x="578" y="666"/>
      <point x="550" y="654"/>
      <point x="550" y="625" type="curve" smooth="yes"/>
      <point x="550" y="-13" type="line" smooth="yes"/>
      <point x="550" y="-160"/>
      <point x="476" y="-212"/>
    </contour>
  </outline>
</glyph>
<glyph name="oe" format="2">
  <advance width="799"/>
  <unicode hex="0153"/>
  <outline>
    <contour>
      <point x="251" y="-10" type="curve"/>
      <point x="373" y="-10"/>
      <point x="453" y="104"/>
      <point x="453" y="254" type="curve" smooth="yes"/>
      <point x="453" y="402"/>
      <point x="373" y="518"/>
      <point x="251" y="518" type="curve" smooth="yes"/>
      <point x="126" y="518"/>
      <point x="36" y="411"/>
      <point x="36" y="254" type="curve" smooth="yes"/>
      <point x="36" y="97"/>
      <point x="126" y="-10"/>
    </contour>
    <contour>
      <point x="252" y="42" type="curve"/>
      <point x="175" y="42"/>
      <point x="126" y="126"/>
      <point x="126" y="254" type="curve" smooth="yes"/>
      <point x="126" y="381"/>
      <point x="174" y="466"/>
      <point x="252" y="466" type="curve" smooth="yes"/>
      <point x="330" y="466"/>
      <point x="378" y="381"/>
      <point x="378" y="254" type="curve" smooth="yes"/>
      <point x="378" y="125"/>
      <point x="330" y="42"/>
    </contour>
    <contour>
      <point x="597" y="-10" type="curve" smooth="yes"/>
      <point x="684" y="-10"/>
      <point x="736" y="42"/>
      <point x="767" y="107" type="curve"/>
      <point x="726" y="144" type="line"/>
      <point x="702" y="101"/>
      <point x="667" y="42"/>
      <point x="601" y="42" type="curve" smooth="yes"/>
      <point x="519" y="42"/>
      <point x="466" y="118"/>
      <point x="466" y="250" type="curve" smooth="yes"/>
      <point x="466" y="384"/>
      <point x="515" y="467"/>
      <point x="585" y="467" type="curve" smooth="yes"/>
      <point x="650" y="467"/>
      <point x="680" y="402"/>
      <point x="682" y="265" type="curve"/>
      <point x="704" y="284" type="line"/>
      <point x="432" y="284" type="line"/>
      <point x="433" y="234" type="line"/>
      <point x="771" y="234" type="line"/>
      <point x="770" y="424"/>
      <point x="705" y="519"/>
      <point x="586" y="519" type="curve" smooth="yes"/>
      <point x="472" y="519"/>
      <point x="390" y="402"/>
      <point x="390" y="252" type="curve" smooth="yes"/>
      <point x="390" y="99"/>
      <point x="475" y="-10"/>
    </contour>
  </outline>
</glyph>
<glyph name="ohorn" format="2">
  <advance width="522"/>
  <unicode hex="01A1"/>
  <anchor x="253" y="508" name="top"/>
  <outline>
    <contour>
      <point x="255" y="41" type="curve"/>
      <point x="176" y="41"/>
      <point x="126" y="125"/>
      <point x="126" y="254" type="curve" smooth="yes"/>
      <point x="126" y="380"/>
      <point x="176" y="466"/>
      <point x="255" y="466" type="curve" smooth="yes"/>
      <point x="335" y="466"/>
      <point x="384" y="380"/>
      <point x="384" y="254" type="curve" smooth="yes"/>
      <point x="384" y="124"/>
      <point x="335" y="41"/>
    </contour>
    <contour>
      <point x="345" y="474" type="line"/>
      <point x="356" y="471"/>
      <point x="365" y="469"/>
      <point x="373" y="469" type="curve"/>
      <point x="447" y="469"/>
      <point x="495" y="553"/>
      <point x="500" y="681" type="curve"/>
      <point x="428" y="681" type="line"/>
      <point x="423" y="589"/>
      <point x="404" y="508"/>
      <point x="345" y="508" type="curve" smooth="yes"/>
      <point x="318" y="508"/>
      <point x="296" y="518"/>
      <point x="257" y="518" type="curve" smooth="yes"/>
      <point x="126" y="518"/>
      <point x="36" y="410"/>
      <point x="36" y="254" type="curve" smooth="yes"/>
      <point x="36" y="97"/>
      <point x="127" y="-10"/>
      <point x="255" y="-10" type="curve"/>
      <point x="384" y="-10"/>
      <point x="475" y="97"/>
      <point x="475" y="254" type="curve" smooth="yes"/>
      <point x="475" y="366"/>
      <point x="420" y="441"/>
      <point x="345" y="476" type="curve"/>
      <point x="361" y="464" type="line"/>
      <point x="361" y="473" type="line"/>
    </contour>
  </outline>
</glyph>
<glyph name="oogonek" format="2">
  <advance width="511"/>
  <unicode hex="01EB"/>
  <outline>
    <contour>
      <point x="255" y="40" type="curve"/>
      <point x="176" y="40"/>
      <point x="126" y="124"/>
      <point x="126" y="253" type="curve" smooth="yes"/>
      <point x="126" y="380"/>
      <point x="176" y="466"/>
      <point x="255" y="466" type="curve" smooth="yes"/>
      <point x="335" y="466"/>
      <point x="384" y="380"/>
      <point x="384" y="253" type="curve" smooth="yes"/>
      <point x="384" y="123"/>
      <point x="335" y="40"/>
    </contour>
    <contour>
      <point x="295" y="-235" type="curve" smooth="yes"/>
      <point x="341" y="-235"/>
      <point x="365" y="-216"/>
      <point x="386" y="-188" type="curve"/>
      <point x="361" y="-157" type="line"/>
      <point x="350" y="-171"/>
      <point x="335" y="-188"/>
      <point x="317" y="-188" type="curve" smooth="yes"/>
      <point x="298" y="-188"/>
      <point x="284" y="-171"/>
      <point x="284" y="-137" type="curve" smooth="yes"/>
      <point x="284" y="-64"/>
      <point x="339" y="-27"/>
      <point x="404" y="51" type="curve" smooth="yes"/>
      <point x="452" y="104"/>
      <point x="475" y="172"/>
      <point x="475" y="253" type="curve" smooth="yes"/>
      <point x="475" y="409"/>
      <point x="384" y="518"/>
      <point x="255" y="518" type="curve" smooth="yes"/>
      <point x="127" y="518"/>
      <point x="36" y="410"/>
      <point x="36" y="253" type="curve" smooth="yes"/>
      <point x="36" y="95"/>
      <point x="127" y="-12"/>
      <point x="255" y="-12" type="curve"/>
      <point x="292" y="-12"/>
      <point x="325" y="-4"/>
      <point x="355" y="11" type="curve"/>
      <point x="363" y="31" type="line"/>
      <point x="261" y="-22"/>
      <point x="203" y="-75"/>
      <point x="203" y="-144" type="curve" smooth="yes"/>
      <point x="203" y="-201"/>
      <point x="241" y="-235"/>
    </contour>
  </outline>
</glyph>
<glyph name="dotlessj" format="2">
  <advance width="248"/>
  <unicode hex="0237"/>
  <anchor x="139" y="508" name="top"/>
  <outline>
    <contour>
      <point x="89" y="-51" type="line" smooth="yes"/>
      <point x="89" y="-150"/>
      <point x="58" y="-180"/>
      <point x="9" y="-180" type="curve" smooth="yes"/>
      <point x="-15" y="-180"/>
      <point x="-35" y="-174"/>
      <point x="-53" y="-168" type="curve"/>
      <point x="-53" y="-225" type="line"/>
      <point x="-39" y="-231"/>
      <point x="-11" y="-236"/>
      <point x="15" y="-236" type="curve" smooth="yes"/>
      <point x="100" y="-236"/>
      <point x="176" y="-196"/>
      <point x="176" y="-51" type="curve" smooth="yes"/>
      <point x="176" y="508" type="line"/>
      <point x="14" y="508" type="line"/>
      <point x="14" y="466" type="line"/>
      <point x="26" y="464" type="line" smooth="yes"/>
      <point x="68" y="457"/>
      <point x="89" y="448"/>
      <point x="89" y="419" type="curve" smooth="yes"/>
    </contour>
  </outline>
</glyph>
<glyph name="circumflex" format="2">
  <advance width="412"/>
  <unicode hex="02C6"/>
  <anchor x="201" y="529" name="_top"/>
  <outline>
    <contour>
      <point x="244" y="738" type="line"/>
      <point x="334" y="586" type="line"/>
      <point x="334" y="576" type="line"/>
      <point x="292" y="576" type="line"/>
      <point x="191" y="693" type="line"/>
      <point x="217" y="693" type="line"/>
      <point x="115" y="576" type="line"/>
      <point x="82" y="576" type="line"/>
      <point x="82" y="586" type="line"/>
      <point x="172" y="738" type="line"/>
    </contour>
  </outline>
</glyph>
<glyph name="breve" format="2">
  <advance width="412"/>
  <unicode hex="02D8"/>
  <anchor x="206" y="517" name="_top"/>
  <outline>
    <contour>
      <point x="206" y="582" type="curve" smooth="yes"/>
      <point x="140" y="582"/>
      <point x="93" y="631"/>
      <point x="89" y="736" type="curve"/>
      <point x="142" y="736" type="line"/>
      <point x="148" y="667"/>
      <point x="171" y="646"/>
      <point x="209" y="646" type="curve" smooth="yes"/>
      <point x="246" y="646"/>
      <point x="268" y="667"/>
      <point x="274" y="736" type="curve"/>
      <point x="323" y="736" type="line"/>
      <point x="320" y="631"/>
      <point x="272" y="582"/>
    </contour>
  </outline>
</glyph>
<glyph name="idieresisacute" format="2">
  <advance width="265"/>
  <unicode hex="1E2F"/>
  <outline>
    <contour>
      <point x="32" y="618" type="curve" smooth="yes"/>
      <point x="64" y="618"/>
      <point x="86" y="639"/>
      <point x="86" y="675" type="curve" smooth="yes"/>
      <point x="86" y="709"/>
      <point x="64" y="731"/>
      <point x="32" y="731" type="curve" smooth="yes"/>
      <point x="0" y="731"/>
      <point x="-23" y="709"/>
      <point x="-23" y="675" type="curve" smooth="yes"/>
      <point x="-23" y="639"/>
      <point x="0" y="618"/>
    </contour>
    <contour>
      <point x="214" y="618" type="curve" smooth="yes"/>
      <point x="247" y="618"/>
      <point x="270" y="639"/>
      <point x="270" y="675" type="curve" smooth="yes"/>
      <point x="270" y="709"/>
      <point x="247" y="731"/>
      <point x="214" y="731" type="curve" smooth="yes"/>
      <point x="183" y="731"/>
      <point x="160" y="709"/>
      <point x="160" y="675" type="curve" smooth="yes"/>
      <point x="160" y="639"/>
      <point x="183" y="618"/>
    </contour>
    <contour>
      <point x="141" y="899" type="curve" smooth="yes"/>
      <point x="105" y="779" type="line"/>
      <point x="105" y="760" type="line"/>
      <point x="134" y="760" type="line"/>
      <point x="201" y="858" type="line" smooth="yes"/>
      <point x="219" y="877"/>
      <point x="230" y="897"/>
      <point x="230" y="914" type="curve" smooth="yes"/>
      <point x="230" y="935"/>
      <point x="214" y="950"/>
      <point x="191" y="950" type="curve" smooth="yes"/>
      <point x="168" y="950"/>
      <point x="152" y="933"/>
    </contour>
    <component base="dotlessi"/>
  </outline>
</glyph>
<glyph name="Germandbls" format="2">
  <advance width="697"/>
  <unicode hex="1E9E"/>
  <outline>
    <contour>
      <point x="483" y="44" type="curve" smooth="yes"/>
      <point x="408" y="44"/>
      <point x="363" y="114"/>
      <point x="346" y="215" type="curve"/>
      <point x="291" y="215" type="line"/>
      <point x="291" y="0" type="line"/>
      <point x="342" y="0" type="line"/>
      <point x="355" y="164" type="line"/>
      <point x="344" y="177"/>
      <point x="332" y="161"/>
      <point x="320" y="174" type="curve"/>
      <point x="344" y="46"/>
      <point x="404" y="-10"/>
      <point x="492" y="-10" type="curve" smooth="yes"/>
      <point x="589" y="-10"/>
      <point x="662" y="67"/>
      <point x="662" y="191" type="curve" smooth="yes"/>
      <point x="662" y="344"/>
      <point x="532" y="407"/>
      <point x="425" y="420" type="curve"/>
      <point x="459" y="398" type="line"/>
      <point x="599" y="657" type="line"/>
      <point x="599" y="710" type="line"/>
      <point x="326" y="710" type="line" smooth="yes"/>
      <point x="168" y="710"/>
      <point x="112" y="625"/>
      <point x="112" y="462" type="curve" smooth="yes"/>
      <point x="112" y="80" type="line" smooth="yes"/>
      <point x="112" y="51"/>
      <point x="84" y="44"/>
      <point x="46" y="44" type="curve" smooth="yes"/>
      <point x="37" y="44" type="line"/>
      <point x="37" y="0" type="line"/>
      <point x="203" y="0" type="line"/>
      <point x="203" y="478" type="line" smooth="yes"/>
      <point x="203" y="590"/>
      <point x="219" y="660"/>
      <point x="331" y="660" type="curve" smooth="yes"/>
      <point x="555" y="660" type="line"/>
      <point x="559" y="666"/>
      <point x="546" y="686"/>
      <point x="529" y="683" type="curve"/>
      <point x="391" y="424" type="line"/>
      <point x="391" y="373" type="line"/>
      <point x="478" y="363"/>
      <point x="574" y="311"/>
      <point x="574" y="180" type="curve" smooth="yes"/>
      <point x="574" y="96"/>
      <point x="544" y="44"/>
    </contour>
  </outline>
</glyph>
<glyph name="won" format="2">
  <advance width="462"/>
  <unicode hex="20A9"/>
  <outline>
    <contour>
      <point x="2" y="710" type="line"/>
      <point x="2" y="666" type="line"/>
      <point x="7" y="666" type="line" smooth="yes"/>
      <point x="25" y="666"/>
      <point x="39" y="663"/>
      <point x="41" y="629" type="curve" smooth="yes"/>
      <point x="84" y="0" type="line"/>
      <point x="178" y="0" type="line"/>
      <point x="240" y="683" type="line"/>
      <point x="230" y="689" type="line"/>
      <point x="292" y="0" type="line"/>
      <point x="384" y="0" type="line"/>
      <point x="420" y="623" type="line" smooth="yes"/>
      <point x="422" y="657"/>
      <point x="438" y="666"/>
      <point x="455" y="666" type="curve" smooth="yes"/>
      <point x="460" y="666" type="line"/>
      <point x="460" y="710" type="line"/>
      <point x="333" y="710" type="line"/>
      <point x="333" y="666" type="line"/>
      <point x="337" y="666" type="line" smooth="yes"/>
      <point x="356" y="666"/>
      <point x="374" y="659"/>
      <point x="374" y="648" type="curve"/>
      <point x="340" y="19" type="line"/>
      <point x="344" y="22" type="line"/>
      <point x="281" y="710" type="line"/>
      <point x="197" y="710" type="line"/>
      <point x="135" y="13" type="line"/>
      <point x="142" y="16" type="line"/>
      <point x="101" y="656" type="line"/>
      <point x="101" y="663"/>
      <point x="120" y="666"/>
      <point x="136" y="666" type="curve" smooth="yes"/>
      <point x="142" y="666" type="line"/>
      <point x="142" y="710" type="line"/>
    </contour>
    <contour>
      <point x="2" y="453" type="line"/>
      <point x="2" y="406" type="line"/>
      <point x="96" y="406" type="line"/>
      <point x="103" y="406" type="line"/>
      <point x="190" y="406" type="line"/>
      <point x="197" y="453" type="line"/>
    </contour>
    <contour>
      <point x="289" y="406" type="line"/>
      <point x="379" y="406" type="line"/>
      <point x="386" y="406" type="line"/>
      <point x="460" y="406" type="line"/>
      <point x="460" y="453" type="line"/>
      <point x="282" y="453" type="line"/>
    </contour>
    <contour>
      <point x="171" y="240" type="line"/>
      <point x="300" y="240" type="line"/>
      <point x="296" y="288" type="line"/>
      <point x="232" y="288" type="line"/>
      <point x="180" y="288" type="line"/>
    </contour>
    <contour>
      <point x="91" y="288" type="line"/>
      <point x="2" y="288" type="line"/>
      <point x="2" y="240" type="line"/>
      <point x="99" y="240" type="line"/>
    </contour>
    <contour>
      <point x="374" y="240" type="line"/>
      <point x="460" y="240" type="line"/>
      <point x="460" y="288" type="line"/>
      <point x="386" y="288" type="line"/>
    </contour>
  </outline>
</glyph>
<glyph name="dong" format="2">
  <advance width="462"/>
  <unicode hex="20AB"/>
  <outline>
    <contour>
      <point x="118" y="250" type="curve" smooth="yes"/>
      <point x="118" y="381"/>
      <point x="151" y="466"/>
      <point x="213" y="466" type="curve" smooth="yes"/>
      <point x="267" y="466"/>
      <point x="302" y="417"/>
      <point x="331" y="315" type="curve"/>
      <point x="364" y="337" type="line"/>
      <point x="319" y="459"/>
      <point x="281" y="518"/>
      <point x="204" y="518" type="curve" smooth="yes"/>
      <point x="100" y="518"/>
      <point x="30" y="409"/>
      <point x="30" y="250" type="curve" smooth="yes"/>
      <point x="30" y="94"/>
      <point x="97" y="-11"/>
      <point x="199" y="-11" type="curve" smooth="yes"/>
      <point x="276" y="-11"/>
      <point x="312" y="55"/>
      <point x="363" y="175" type="curve"/>
      <point x="332" y="198" type="line"/>
      <point x="303" y="98"/>
      <point x="266" y="41"/>
      <point x="210" y="41" type="curve" smooth="yes"/>
      <point x="151" y="41"/>
      <point x="118" y="122"/>
    </contour>
    <contour>
      <point x="315" y="735" type="line"/>
      <point x="315" y="119" type="line"/>
      <point x="322" y="116" type="line"/>
      <point x="322" y="0" type="line"/>
      <point x="461" y="0" type="line"/>
      <point x="461" y="41" type="line"/>
      <point x="458" y="41" type="line"/>
      <point x="422" y="41"/>
      <point x="399" y="48"/>
      <point x="399" y="77" type="curve" smooth="yes"/>
      <point x="399" y="735" type="line"/>
    </contour>
    <contour>
      <point x="72" y="-128" type="line"/>
      <point x="72" y="-182" type="line"/>
      <point x="432" y="-182" type="line"/>
      <point x="432" y="-128" type="line"/>
    </contour>
    <contour>
      <point x="177" y="624" type="line"/>
      <point x="177" y="577" type="line"/>
      <point x="473" y="577" type="line"/>
      <point x="473" y="624" type="line"/>
    </contour>
  </outline>
</glyph>
<glyph name="kip" format="2">
  <advance width="462"/>
  <unicode hex="20AD"/>
  <outline>
    <contour>
      <point x="12" y="395" type="line"/>
      <point x="12" y="347" type="line"/>
      <point x="416" y="347" type="line"/>
      <point x="416" y="395" type="line"/>
    </contour>
    <contour>
      <point x="12" y="0" type="line"/>
      <point x="204" y="0" type="line" smooth="yes"/>
      <point x="204" y="44" type="line" smooth="yes"/>
      <point x="197" y="44" type="line" smooth="yes"/>
      <point x="174" y="44"/>
      <point x="147" y="47"/>
      <point x="147" y="54" type="curve" smooth="yes"/>
      <point x="147" y="656" type="line" smooth="yes"/>
      <point x="147" y="663"/>
      <point x="175" y="666"/>
      <point x="198" y="666" type="curve" smooth="yes"/>
      <point x="205" y="666" type="line" smooth="yes"/>
      <point x="205" y="710" type="line" smooth="yes"/>
      <point x="12" y="710" type="line"/>
      <point x="12" y="666" type="line"/>
      <point x="20" y="666" type="line" smooth="yes"/>
      <point x="44" y="666"/>
      <point x="62" y="659"/>
      <point x="62" y="630" type="curve" smooth="yes"/>
      <point x="62" y="80" type="line" smooth="yes"/>
      <point x="62" y="51"/>
      <point x="44" y="44"/>
      <point x="20" y="44" type="curve" smooth="yes"/>
      <point x="12" y="44" type="line"/>
    </contour>
    <contour>
      <point x="451" y="44" type="line"/>
      <point x="446" y="44" type="line" smooth="yes"/>
      <point x="425" y="44"/>
      <point x="410" y="48"/>
      <point x="397" y="77" type="curve" smooth="yes"/>
      <point x="243" y="400" type="line"/>
      <point x="235" y="360" type="line"/>
      <point x="379" y="637" type="line" smooth="yes"/>
      <point x="392" y="660"/>
      <point x="406" y="666"/>
      <point x="422" y="666" type="curve" smooth="yes"/>
      <point x="431" y="666" type="line"/>
      <point x="431" y="710" type="line"/>
      <point x="271" y="710" type="line"/>
      <point x="271" y="666" type="line"/>
      <point x="278" y="666" type="line" smooth="yes"/>
      <point x="300" y="666"/>
      <point x="327" y="663"/>
      <point x="329" y="656" type="curve"/>
      <point x="177" y="367" type="line"/>
      <point x="179" y="353" type="line"/>
      <point x="309" y="54" type="line"/>
      <point x="309" y="47"/>
      <point x="283" y="44"/>
      <point x="261" y="44" type="curve" smooth="yes"/>
      <point x="254" y="44" type="line"/>
      <point x="254" y="0" type="line"/>
      <point x="451" y="0" type="line"/>
    </contour>
  </outline>
</glyph>
<glyph name="uni20B8" format="2">
  <advance width="462"/>
  <unicode hex="20B8"/>
  <outline>
    <contour>
      <point x="17" y="710" type="line"/>
      <point x="17" y="662" type="line"/>
      <point x="445" y="662" type="line"/>
      <point x="445" y="710" type="line"/>
    </contour>
    <contour>
      <point x="188" y="80" type="line" smooth="yes"/>
      <point x="188" y="51"/>
      <point x="160" y="44"/>
      <point x="121" y="44" type="curve" smooth="yes"/>
      <point x="108" y="44" type="line"/>
      <point x="108" y="0" type="line"/>
      <point x="355" y="0" type="line"/>
      <point x="355" y="44" type="line"/>
      <point x="341" y="44" type="line" smooth="yes"/>
      <point x="303" y="44"/>
      <point x="275" y="51"/>
      <point x="275" y="80" type="curve" smooth="yes"/>
      <point x="275" y="514" type="line"/>
      <point x="299" y="514" type="line" smooth="yes"/>
      <point x="357" y="514"/>
      <point x="386" y="507"/>
      <point x="388" y="471" type="curve" smooth="yes"/>
      <point x="395" y="373" type="line"/>
      <point x="445" y="373" type="line"/>
      <point x="445" y="563" type="line"/>
      <point x="17" y="563" type="line"/>
      <point x="17" y="373" type="line"/>
      <point x="67" y="373" type="line"/>
      <point x="74" y="471" type="line" smooth="yes"/>
      <point x="76" y="507"/>
      <point x="105" y="514"/>
      <point x="163" y="514" type="curve" smooth="yes"/>
      <point x="188" y="514" type="line"/>
    </contour>
  </outline>
</glyph>
<glyph name="infinity" format="2">
  <advance width="640"/>
  <unicode hex="221E"/>
  <outline>
    <contour>
      <point x="183" y="154" type="curve" smooth="yes"/>
      <point x="101" y="154"/>
      <point x="41" y="236"/>
      <point x="41" y="353" type="curve" smooth="yes"/>
      <point x="41" y="471"/>
      <point x="107" y="556"/>
      <point x="190" y="556" type="curve" smooth="yes"/>
      <point x="289" y="556"/>
      <point x="323" y="465"/>
      <point x="355" y="380" type="curve" smooth="yes"/>
      <point x="388" y="281"/>
      <point x="414" y="220"/>
      <point x="469" y="220" type="curve" smooth="yes"/>
      <point x="518" y="220"/>
      <point x="550" y="275"/>
      <point x="550" y="360" type="curve" smooth="yes"/>
      <point x="550" y="440"/>
      <point x="514" y="491"/>
      <point x="455" y="491" type="curve" smooth="yes"/>
      <point x="396" y="491"/>
      <point x="360" y="436"/>
      <point x="342" y="367" type="curve"/>
      <point x="309" y="368" type="line"/>
      <point x="326" y="470"/>
      <point x="380" y="556"/>
      <point x="457" y="556" type="curve" smooth="yes"/>
      <point x="539" y="556"/>
      <point x="598" y="474"/>
      <point x="598" y="357" type="curve" smooth="yes"/>
      <point x="598" y="239"/>
      <point x="534" y="154"/>
      <point x="449" y="154" type="curve" smooth="yes"/>
      <point x="356" y="154"/>
      <point x="316" y="236"/>
      <point x="285" y="332" type="curve" smooth="yes"/>
      <point x="258" y="427"/>
      <point x="227" y="490"/>
      <point x="172" y="490" type="curve" smooth="yes"/>
      <point x="123" y="490"/>
      <point x="90" y="435"/>
      <point x="90" y="350" type="curve" smooth="yes"/>
      <point x="90" y="270"/>
      <point x="126" y="219"/>
      <point x="186" y="219" type="curve" smooth="yes"/>
      <point x="245" y="219"/>
      <point x="280" y="274"/>
      <point x="296" y="343" type="curve"/>
      <point x="330" y="342" type="line"/>
      <point x="314" y="240"/>
      <point x="261" y="154"/>
    </contour>
  </outline>
</glyph>
<glyph name="hook" format="2">
  <advance width="421"/>
  <unicode hex="2440"/>
  <anchor x="193" y="517" name="_top"/>
  <outline>
    <contour>
      <point x="94" y="693" type="line"/>
      <point x="97" y="738"/>
      <point x="129" y="776"/>
      <point x="193" y="776" type="curve" smooth="yes"/>
      <point x="255" y="776"/>
      <point x="290" y="746"/>
      <point x="290" y="695" type="curve" smooth="yes"/>
      <point x="290" y="636"/>
      <point x="240" y="611"/>
      <point x="183" y="606" type="curve"/>
      <point x="210" y="633" type="line"/>
      <point x="210" y="570" type="line"/>
      <point x="160" y="570" type="line"/>
      <point x="160" y="640" type="line"/>
      <point x="204" y="643"/>
      <point x="223" y="661"/>
      <point x="223" y="693" type="curve" smooth="yes"/>
      <point x="223" y="718"/>
      <point x="213" y="733"/>
      <point x="191" y="733" type="curve" smooth="yes"/>
      <point x="168" y="733"/>
      <point x="157" y="716"/>
      <point x="155" y="693" type="curve"/>
    </contour>
  </outline>
</glyph>
<glyph name="zero.den" format="2">
  <advance width="275"/>
  <unicode hex="E402"/>
  <outline>
    <contour>
      <point x="137" y="347" type="curve" smooth="yes"/>
      <point x="67" y="347"/>
      <point x="18" y="277"/>
      <point x="18" y="170" type="curve" smooth="yes"/>
      <point x="18" y="64"/>
      <point x="67" y="-6"/>
      <point x="137" y="-6" type="curve" smooth="yes"/>
      <point x="208" y="-6"/>
      <point x="258" y="64"/>
      <point x="258" y="171" type="curve" smooth="yes"/>
      <point x="258" y="277"/>
      <point x="208" y="347"/>
    </contour>
    <contour>
      <point x="137" y="31" type="curve" smooth="yes"/>
      <point x="106" y="31"/>
      <point x="88" y="77"/>
      <point x="88" y="170" type="curve" smooth="yes"/>
      <point x="88" y="263"/>
      <point x="106" y="310"/>
      <point x="137" y="310" type="curve" smooth="yes"/>
      <point x="170" y="310"/>
      <point x="187" y="264"/>
      <point x="187" y="171" type="curve" smooth="yes"/>
      <point x="187" y="78"/>
      <point x="170" y="31"/>
    </contour>
  </outline>
</glyph>
<glyph name="E.alt" format="2">
  <advance width="529"/>
  <outline>
    <contour>
      <point x="483" y="211" type="line"/>
      <point x="431" y="211" type="line"/>
      <point x="424" y="96" type="line" smooth="yes"/>
      <point x="421" y="60"/>
      <point x="392" y="53"/>
      <point x="322" y="53" type="curve" smooth="yes"/>
      <point x="200" y="53" type="line"/>
      <point x="200" y="657" type="line"/>
      <point x="301" y="657" type="line" smooth="yes"/>
      <point x="369" y="657"/>
      <point x="397" y="650"/>
      <point x="401" y="614" type="curve" smooth="yes"/>
      <point x="408" y="524" type="line"/>
      <point x="458" y="524" type="line"/>
      <point x="458" y="710" type="line"/>
      <point x="35" y="710" type="line"/>
      <point x="35" y="666" type="line"/>
      <point x="44" y="666" type="line" smooth="yes"/>
      <point x="83" y="666"/>
      <point x="111" y="659"/>
      <point x="111" y="630" type="curve" smooth="yes"/>
      <point x="111" y="80" type="line" smooth="yes"/>
      <point x="111" y="51"/>
      <point x="83" y="44"/>
      <point x="44" y="44" type="curve" smooth="yes"/>
      <point x="35" y="44" type="line"/>
      <point x="35" y="0" type="line"/>
      <point x="483" y="0" type="line"/>
    </contour>
    <contour>
      <point x="171" y="389" type="line"/>
      <point x="171" y="338" type="line"/>
      <point x="308" y="338" type="line" smooth="yes"/>
      <point x="331" y="338"/>
      <point x="339" y="307"/>
      <point x="339" y="273" type="curve" smooth="yes"/>
      <point x="339" y="267" type="line"/>
      <point x="380" y="267" type="line"/>
      <point x="380" y="461" type="line"/>
      <point x="339" y="461" type="line"/>
      <point x="339" y="454" type="line" smooth="yes"/>
      <point x="339" y="419"/>
      <point x="331" y="389"/>
      <point x="308" y="389" type="curve" smooth="yes"/>
    </contour>
  </outline>
</glyph>
<glyph name="cent.altprop" format="2">
  <advance width="466"/>
  <outline>
    <contour>
      <point x="279" y="497" type="line"/>
      <point x="279" y="623" type="line"/>
      <point x="226" y="623" type="line"/>
      <point x="226" y="490" type="line"/>
    </contour>
    <contour>
      <point x="226" y="9" type="line"/>
      <point x="226" y="-126" type="line"/>
      <point x="279" y="-126" type="line"/>
      <point x="279" y="16" type="line"/>
    </contour>
    <contour>
      <point x="263" y="42" type="curve" smooth="yes"/>
      <point x="179" y="42"/>
      <point x="120" y="124"/>
      <point x="120" y="249" type="curve" smooth="yes"/>
      <point x="120" y="378"/>
      <point x="172" y="466"/>
      <point x="259" y="466" type="curve" smooth="yes"/>
      <point x="318" y="466"/>
      <point x="361" y="427"/>
      <point x="380" y="394" type="curve"/>
      <point x="388" y="416"/>
      <point x="376" y="443"/>
      <point x="353" y="444" type="curve"/>
      <point x="353" y="337" type="line"/>
      <point x="430" y="337" type="line"/>
      <point x="430" y="449" type="line"/>
      <point x="408" y="472"/>
      <point x="348" y="518"/>
      <point x="257" y="518" type="curve" smooth="yes"/>
      <point x="121" y="518"/>
      <point x="31" y="404"/>
      <point x="31" y="249" type="curve" smooth="yes"/>
      <point x="31" y="97"/>
      <point x="129" y="-10"/>
      <point x="257" y="-10" type="curve" smooth="yes"/>
      <point x="348" y="-10"/>
      <point x="402" y="46"/>
      <point x="435" y="114" type="curve"/>
      <point x="395" y="149" type="line"/>
      <point x="369" y="101"/>
      <point x="335" y="42"/>
    </contour>
  </outline>
</glyph>
<glyph name="eight.midprop" format="2">
  <advance width="487"/>
  <outline>
    <contour>
      <point x="243" y="44" type="curve" smooth="yes"/>
      <point x="169" y="44"/>
      <point x="125" y="102"/>
      <point x="125" y="197" type="curve" smooth="yes"/>
      <point x="125" y="296"/>
      <point x="168" y="350"/>
      <point x="243" y="350" type="curve" smooth="yes"/>
      <point x="319" y="350"/>
      <point x="362" y="296"/>
      <point x="362" y="197" type="curve" smooth="yes"/>
      <point x="362" y="102"/>
      <point x="319" y="44"/>
    </contour>
    <contour>
      <point x="243" y="402" type="curve" smooth="yes"/>
      <point x="186" y="402"/>
      <point x="150" y="453"/>
      <point x="150" y="534" type="curve" smooth="yes"/>
      <point x="150" y="614"/>
      <point x="186" y="666"/>
      <point x="243" y="666" type="curve" smooth="yes"/>
      <point x="301" y="666"/>
      <point x="337" y="614"/>
      <point x="337" y="534" type="curve" smooth="yes"/>
      <point x="337" y="453"/>
      <point x="301" y="402"/>
    </contour>
    <contour>
      <point x="243" y="720" type="curve" smooth="yes"/>
      <point x="139" y="720"/>
      <point x="66" y="647"/>
      <point x="66" y="543" type="curve" smooth="yes"/>
      <point x="66" y="454"/>
      <point x="117" y="392"/>
      <point x="196" y="374" type="curve"/>
      <point x="185" y="386" type="line"/>
      <point x="185" y="369" type="line"/>
      <point x="196" y="384" type="line"/>
      <point x="102" y="368"/>
      <point x="33" y="298"/>
      <point x="33" y="192" type="curve" smooth="yes"/>
      <point x="33" y="71"/>
      <point x="121" y="-10"/>
      <point x="243" y="-10" type="curve" smooth="yes"/>
      <point x="366" y="-10"/>
      <point x="453" y="71"/>
      <point x="453" y="192" type="curve" smooth="yes"/>
      <point x="453" y="298"/>
      <point x="385" y="368"/>
      <point x="291" y="384" type="curve"/>
      <point x="302" y="369" type="line"/>
      <point x="302" y="386" type="line"/>
      <point x="291" y="374" type="line"/>
      <point x="370" y="392"/>
      <point x="421" y="454"/>
      <point x="421" y="543" type="curve" smooth="yes"/>
      <point x="421" y="647"/>
      <point x="349" y="720"/>
    </contour>
  </outline>
</glyph>
<glyph name="five.linprop" format="2">
  <advance width="488"/>
  <outline>
    <contour>
      <point x="228" y="-11" type="curve" smooth="yes"/>
      <point x="119" y="-11"/>
      <point x="55" y="57"/>
      <point x="24" y="135" type="curve"/>
      <point x="73" y="170" type="line"/>
      <point x="97" y="114"/>
      <point x="139" y="43"/>
      <point x="225" y="43" type="curve" smooth="yes"/>
      <point x="306" y="43"/>
      <point x="358" y="118"/>
      <point x="358" y="238" type="curve" smooth="yes"/>
      <point x="358" y="348"/>
      <point x="309" y="414"/>
      <point x="244" y="414" type="curve" smooth="yes"/>
      <point x="193" y="414"/>
      <point x="153" y="388"/>
      <point x="126" y="342" type="curve"/>
      <point x="77" y="342" type="line"/>
      <point x="77" y="710" type="line"/>
      <point x="408" y="710" type="line"/>
      <point x="389" y="641" type="line"/>
      <point x="113" y="641" type="line"/>
      <point x="134" y="690" type="line"/>
      <point x="134" y="376" type="line"/>
      <point x="131" y="366"/>
      <point x="114" y="358"/>
      <point x="113" y="378" type="curve"/>
      <point x="142" y="433"/>
      <point x="196" y="468"/>
      <point x="263" y="468" type="curve" smooth="yes"/>
      <point x="376" y="468"/>
      <point x="447" y="359"/>
      <point x="447" y="237" type="curve" smooth="yes"/>
      <point x="447" y="92"/>
      <point x="360" y="-11"/>
    </contour>
  </outline>
</glyph>
<glyph name="five.lintab" format="2">
  <advance width="462"/>
  <outline>
    <contour>
      <point x="216" y="-11" type="curve" smooth="yes"/>
      <point x="111" y="-11"/>
      <point x="50" y="56"/>
      <point x="19" y="134" type="curve"/>
      <point x="64" y="169" type="line"/>
      <point x="89" y="111"/>
      <point x="126" y="43"/>
      <point x="213" y="43" type="curve" smooth="yes"/>
      <point x="288" y="43"/>
      <point x="342" y="123"/>
      <point x="342" y="242" type="curve" smooth="yes"/>
      <point x="342" y="353"/>
      <point x="291" y="414"/>
      <point x="227" y="414" type="curve" smooth="yes"/>
      <point x="182" y="414"/>
      <point x="142" y="389"/>
      <point x="114" y="342" type="curve"/>
      <point x="65" y="342" type="line"/>
      <point x="65" y="710" type="line"/>
      <point x="393" y="710" type="line"/>
      <point x="373" y="641" type="line"/>
      <point x="100" y="641" type="line"/>
      <point x="121" y="690" type="line"/>
      <point x="121" y="376" type="line"/>
      <point x="118" y="366"/>
      <point x="102" y="358"/>
      <point x="101" y="378" type="curve"/>
      <point x="130" y="433"/>
      <point x="185" y="468"/>
      <point x="246" y="468" type="curve" smooth="yes"/>
      <point x="359" y="468"/>
      <point x="430" y="364"/>
      <point x="430" y="242" type="curve" smooth="yes"/>
      <point x="430" y="96"/>
      <point x="342" y="-11"/>
    </contour>
  </outline>
</glyph>
<glyph name="four.oldprop" format="2">
  <advance width="496"/>
  <outline>
    <contour>
      <point x="27" y="51" type="line"/>
      <point x="479" y="51" type="line"/>
      <point x="479" y="111" type="line"/>
      <point x="56" y="111" type="line"/>
      <point x="60" y="75" type="line"/>
      <point x="305" y="513" type="line"/>
      <point x="327" y="548" type="line"/>
      <point x="272" y="548" type="line"/>
      <point x="27" y="117" type="line"/>
    </contour>
    <contour>
      <point x="382" y="-136" type="line"/>
      <point x="382" y="548" type="line"/>
      <point x="303" y="548" type="line"/>
      <point x="297" y="527" type="line"/>
      <point x="297" y="-136" type="line"/>
    </contour>
  </outline>
</glyph>
<glyph name="nine.oldprop" format="2">
  <advance width="479"/>
  <outline>
    <contour>
      <point x="82" y="-100" type="line"/>
      <point x="253" y="-85"/>
      <point x="353" y="37"/>
      <point x="353" y="255" type="curve" smooth="yes"/>
      <point x="353" y="434"/>
      <point x="303" y="504"/>
      <point x="231" y="504" type="curve" smooth="yes"/>
      <point x="165" y="504"/>
      <point x="121" y="436"/>
      <point x="121" y="331" type="curve" smooth="yes"/>
      <point x="121" y="238"/>
      <point x="155" y="170"/>
      <point x="220" y="170" type="curve" smooth="yes"/>
      <point x="287" y="170"/>
      <point x="335" y="234"/>
      <point x="363" y="325" type="curve"/>
      <point x="372" y="279" type="line"/>
      <point x="352" y="194"/>
      <point x="291" y="116"/>
      <point x="206" y="116" type="curve" smooth="yes"/>
      <point x="107" y="116"/>
      <point x="31" y="201"/>
      <point x="31" y="331" type="curve" smooth="yes"/>
      <point x="31" y="463"/>
      <point x="117" y="558"/>
      <point x="231" y="558" type="curve" smooth="yes"/>
      <point x="353" y="558"/>
      <point x="441" y="459"/>
      <point x="441" y="255" type="curve" smooth="yes"/>
      <point x="441" y="21"/>
      <point x="309" y="-136"/>
      <point x="90" y="-154" type="curve"/>
    </contour>
  </outline>
</glyph>
<glyph name="one.oldprop" format="2">
  <advance width="405"/>
  <outline>
    <contour>
      <point x="265" y="79" type="curve" smooth="yes"/>
      <point x="265" y="548" type="line"/>
      <point x="202" y="548" type="line"/>
      <point x="172" y="497"/>
      <point x="127" y="474"/>
      <point x="53" y="472" type="curve"/>
      <point x="53" y="418" type="line"/>
      <point x="120" y="416"/>
      <point x="174" y="446"/>
      <point x="191" y="492" type="curve"/>
      <point x="177" y="483" type="line"/>
      <point x="177" y="79" type="line" smooth="yes"/>
      <point x="177" y="50"/>
      <point x="148" y="43"/>
      <point x="93" y="43" type="curve" smooth="yes"/>
      <point x="65" y="43" type="line"/>
      <point x="65" y="0" type="line"/>
      <point x="373" y="0" type="line"/>
      <point x="373" y="43" type="line"/>
      <point x="347" y="43" type="line" smooth="yes"/>
      <point x="296" y="43"/>
      <point x="265" y="50"/>
    </contour>
  </outline>
</glyph>
<glyph name="peseta.proportional" format="2">
  <advance width="686"/>
  <outline>
    <contour>
      <point x="34" y="0" type="line"/>
      <point x="267" y="0" type="line"/>
      <point x="267" y="44" type="line"/>
      <point x="246" y="44" type="line" smooth="yes"/>
      <point x="220" y="44"/>
      <point x="188" y="47"/>
      <point x="188" y="54" type="curve" smooth="yes"/>
      <point x="188" y="276" type="line"/>
      <point x="209" y="276" type="line" smooth="yes"/>
      <point x="343" y="276"/>
      <point x="423" y="366"/>
      <point x="423" y="496" type="curve" smooth="yes"/>
      <point x="423" y="626"/>
      <point x="346" y="710"/>
      <point x="211" y="710" type="curve" smooth="yes"/>
      <point x="34" y="710" type="line"/>
      <point x="34" y="666" type="line"/>
      <point x="43" y="666" type="line" smooth="yes"/>
      <point x="77" y="666"/>
      <point x="102" y="659"/>
      <point x="102" y="630" type="curve" smooth="yes"/>
      <point x="102" y="80" type="line" smooth="yes"/>
      <point x="102" y="51"/>
      <point x="77" y="44"/>
      <point x="43" y="44" type="curve" smooth="yes"/>
      <point x="34" y="44" type="line"/>
    </contour>
    <contour>
      <point x="212" y="658" type="line" smooth="yes"/>
      <point x="294" y="658"/>
      <point x="335" y="598"/>
      <point x="335" y="495" type="curve" smooth="yes"/>
      <point x="335" y="393"/>
      <point x="294" y="326"/>
      <point x="208" y="326" type="curve" smooth="yes"/>
      <point x="188" y="326" type="line"/>
      <point x="188" y="658" type="line"/>
    </contour>
    <contour>
      <point x="532" y="508" type="line"/>
      <point x="484" y="492" type="line"/>
      <point x="484" y="138" type="line" smooth="yes"/>
      <point x="484" y="17"/>
      <point x="546" y="-11"/>
      <point x="614" y="-11" type="curve" smooth="yes"/>
      <point x="636" y="-11"/>
      <point x="654" y="-6"/>
      <point x="666" y="-1" type="curve"/>
      <point x="666" y="51" type="line"/>
      <point x="658" y="47"/>
      <point x="641" y="44"/>
      <point x="625" y="44" type="curve" smooth="yes"/>
      <point x="589" y="44"/>
      <point x="567" y="67"/>
      <point x="567" y="139" type="curve" smooth="yes"/>
      <point x="567" y="648" type="line"/>
      <point x="496" y="648" type="line"/>
      <point x="496" y="553" type="line" smooth="yes"/>
      <point x="496" y="512"/>
      <point x="476" y="503"/>
      <point x="437" y="503" type="curve" smooth="yes"/>
      <point x="406" y="503" type="line"/>
      <point x="405" y="456" type="line"/>
      <point x="666" y="456" type="line"/>
      <point x="666" y="508" type="line"/>
    </contour>
  </outline>
</glyph>
<glyph name="ruble.proportional" format="2">
  <advance width="497"/>
  <outline>
    <contour>
      <point x="41" y="383" type="line"/>
      <point x="279" y="383" type="line" smooth="yes"/>
      <point x="357" y="383"/>
      <point x="395" y="439"/>
      <point x="395" y="524" type="curve" smooth="yes"/>
      <point x="395" y="608"/>
      <point x="357" y="658"/>
      <point x="284" y="658" type="curve" smooth="yes"/>
      <point x="204" y="658" type="line"/>
      <point x="204" y="54" type="line" smooth="yes"/>
      <point x="204" y="47"/>
      <point x="238" y="44"/>
      <point x="264" y="44" type="curve" smooth="yes"/>
      <point x="286" y="44" type="line"/>
      <point x="286" y="0" type="line"/>
      <point x="41" y="0" type="line"/>
      <point x="41" y="44" type="line"/>
      <point x="50" y="44" type="line" smooth="yes"/>
      <point x="89" y="44"/>
      <point x="117" y="51"/>
      <point x="117" y="80" type="curve" smooth="yes"/>
      <point x="117" y="630" type="line" smooth="yes"/>
      <point x="117" y="659"/>
      <point x="89" y="666"/>
      <point x="50" y="666" type="curve" smooth="yes"/>
      <point x="41" y="666" type="line"/>
      <point x="41" y="710" type="line"/>
      <point x="285" y="710" type="line" smooth="yes"/>
      <point x="411" y="710"/>
      <point x="485" y="638"/>
      <point x="485" y="525" type="curve" smooth="yes"/>
      <point x="485" y="414"/>
      <point x="406" y="335"/>
      <point x="281" y="335" type="curve" smooth="yes"/>
      <point x="41" y="335" type="line"/>
    </contour>
    <contour>
      <point x="355" y="180" type="line"/>
      <point x="41" y="180" type="line"/>
      <point x="41" y="227" type="line"/>
      <point x="355" y="227" type="line"/>
    </contour>
  </outline>
</glyph>
<glyph name="seven.lintab" format="2">
  <advance width="462"/>
  <outline>
    <contour>
      <point x="199" y="641" type="line" smooth="yes"/>
      <point x="130" y="641"/>
      <point x="102" y="634"/>
      <point x="99" y="598" type="curve" smooth="yes"/>
      <point x="91" y="508" type="line"/>
      <point x="46" y="508" type="line"/>
      <point x="46" y="710" type="line"/>
      <point x="439" y="710" type="line"/>
      <point x="439" y="642" type="line"/>
      <point x="344" y="473"/>
      <point x="262" y="313"/>
      <point x="240" y="0" type="curve"/>
      <point x="150" y="0" type="line"/>
      <point x="176" y="311"/>
      <point x="344" y="574"/>
      <point x="392" y="655" type="curve"/>
      <point x="402" y="641" type="line"/>
    </contour>
  </outline>
</glyph>
<glyph name="seven.oldprop" format="2">
  <advance width="460"/>
  <outline>
    <contour>
      <point x="204" y="479" type="line" smooth="yes"/>
      <point x="136" y="479"/>
      <point x="108" y="472"/>
      <point x="104" y="436" type="curve" smooth="yes"/>
      <point x="97" y="346" type="line"/>
      <point x="51" y="346" type="line"/>
      <point x="51" y="548" type="line"/>
      <point x="431" y="548" type="line"/>
      <point x="431" y="480" type="line"/>
      <point x="336" y="311"/>
      <point x="260" y="179"/>
      <point x="244" y="-136" type="curve"/>
      <point x="153" y="-136" type="line"/>
      <point x="174" y="176"/>
      <point x="335" y="412"/>
      <point x="385" y="493" type="curve"/>
      <point x="396" y="479" type="line"/>
    </contour>
  </outline>
</glyph>
<glyph name="six.oldtab" format="2">
  <advance width="462"/>
  <outline>
    <contour>
      <point x="375" y="686" type="line"/>
      <point x="219" y="651"/>
      <point x="115" y="500"/>
      <point x="115" y="297" type="curve" smooth="yes"/>
      <point x="115" y="123"/>
      <point x="166" y="44"/>
      <point x="241" y="44" type="curve" smooth="yes"/>
      <point x="309" y="44"/>
      <point x="347" y="120"/>
      <point x="347" y="229" type="curve" smooth="yes"/>
      <point x="347" y="330"/>
      <point x="317" y="399"/>
      <point x="248" y="399" type="curve" smooth="yes"/>
      <point x="177" y="399"/>
      <point x="132" y="331"/>
      <point x="102" y="245" type="curve"/>
      <point x="92" y="292" type="line"/>
      <point x="114" y="371"/>
      <point x="174" y="453"/>
      <point x="263" y="453" type="curve" smooth="yes"/>
      <point x="365" y="453"/>
      <point x="437" y="367"/>
      <point x="437" y="229" type="curve" smooth="yes"/>
      <point x="437" y="92"/>
      <point x="356" y="-10"/>
      <point x="241" y="-10" type="curve" smooth="yes"/>
      <point x="119" y="-10"/>
      <point x="29" y="94"/>
      <point x="29" y="293" type="curve" smooth="yes"/>
      <point x="29" y="509"/>
      <point x="164" y="700"/>
      <point x="367" y="740" type="curve"/>
    </contour>
  </outline>
</glyph>
<glyph name="two.lintab" format="2">
  <advance width="462"/>
  <outline>
    <contour>
      <point x="261" y="64" type="line" smooth="yes"/>
      <point x="328" y="64"/>
      <point x="354" y="71"/>
      <point x="358" y="105" type="curve" smooth="yes"/>
      <point x="365" y="186" type="line"/>
      <point x="416" y="186" type="line"/>
      <point x="416" y="0" type="line"/>
      <point x="36" y="0" type="line"/>
      <point x="36" y="80" type="line"/>
      <point x="178" y="222"/>
      <point x="318" y="360"/>
      <point x="318" y="523" type="curve" smooth="yes"/>
      <point x="318" y="627"/>
      <point x="275" y="666"/>
      <point x="218" y="666" type="curve" smooth="yes"/>
      <point x="155" y="666"/>
      <point x="117" y="625"/>
      <point x="91" y="577" type="curve"/>
      <point x="93" y="614"/>
      <point x="103" y="634"/>
      <point x="124" y="637" type="curve"/>
      <point x="124" y="532" type="line"/>
      <point x="44" y="532" type="line"/>
      <point x="44" y="627" type="line"/>
      <point x="70" y="669"/>
      <point x="134" y="720"/>
      <point x="221" y="720" type="curve" smooth="yes"/>
      <point x="334" y="720"/>
      <point x="406" y="650"/>
      <point x="406" y="520" type="curve" smooth="yes"/>
      <point x="406" y="346"/>
      <point x="222" y="174"/>
      <point x="69" y="41" type="curve"/>
      <point x="65" y="43"/>
      <point x="62" y="58"/>
      <point x="65" y="64" type="curve"/>
    </contour>
  </outline>
</glyph>
<glyph name="two.oldtab" format="2">
  <advance width="462"/>
  <outline>
    <contour>
      <point x="420" y="0" type="line"/>
      <point x="38" y="0" type="line"/>
      <point x="38" y="79" type="line"/>
      <point x="204" y="190"/>
      <point x="318" y="238"/>
      <point x="318" y="385" type="curve" smooth="yes"/>
      <point x="318" y="470"/>
      <point x="287" y="506"/>
      <point x="228" y="506" type="curve" smooth="yes"/>
      <point x="171" y="506"/>
      <point x="126" y="468"/>
      <point x="103" y="422" type="curve"/>
      <point x="104" y="457"/>
      <point x="116" y="476"/>
      <point x="137" y="479" type="curve"/>
      <point x="137" y="375" type="line"/>
      <point x="57" y="375" type="line"/>
      <point x="57" y="469" type="line"/>
      <point x="82" y="509"/>
      <point x="149" y="558"/>
      <point x="230" y="558" type="curve" smooth="yes"/>
      <point x="345" y="558"/>
      <point x="407" y="499"/>
      <point x="407" y="385" type="curve" smooth="yes"/>
      <point x="407" y="221"/>
      <point x="255" y="148"/>
      <point x="71" y="43" type="curve"/>
      <point x="65" y="46"/>
      <point x="63" y="57"/>
      <point x="66" y="66" type="curve"/>
      <point x="420" y="66" type="line"/>
    </contour>
  </outline>
</glyph>
<glyph name="zero.linprop" format="2">
  <advance width="527"/>
  <outline>
    <contour>
      <point x="263" y="-10" type="curve" smooth="yes"/>
      <point x="398" y="-10"/>
      <point x="491" y="138"/>
      <point x="491" y="355" type="curve" smooth="yes"/>
      <point x="491" y="573"/>
      <point x="398" y="720"/>
      <point x="263" y="720" type="curve" smooth="yes"/>
      <point x="129" y="720"/>
      <point x="36" y="573"/>
      <point x="36" y="355" type="curve" smooth="yes"/>
      <point x="36" y="138"/>
      <point x="129" y="-10"/>
    </contour>
    <contour>
      <point x="263" y="44" type="curve" smooth="yes"/>
      <point x="176" y="44"/>
      <point x="126" y="163"/>
      <point x="126" y="355" type="curve" smooth="yes"/>
      <point x="126" y="546"/>
      <point x="176" y="666"/>
      <point x="263" y="666" type="curve" smooth="yes"/>
      <point x="351" y="666"/>
      <point x="401" y="546"/>
      <point x="401" y="355" type="curve" smooth="yes"/>
      <point x="401" y="163"/>
      <point x="351" y="44"/>
    </contour>
  </outline>
</glyph>
<glyph name="zero.slash" format="2">
  <advance width="462"/>
  <outline>
    <contour>
      <point x="114" y="133" type="line"/>
      <point x="368" y="426" type="line"/>
      <point x="351" y="475" type="line"/>
      <point x="94" y="179" type="line"/>
    </contour>
    <contour>
      <point x="231" y="-11" type="curve" smooth="yes"/>
      <point x="350" y="-11"/>
      <point x="433" y="118"/>
      <point x="433" y="304" type="curve" smooth="yes"/>
      <point x="433" y="490"/>
      <point x="350" y="619"/>
      <point x="231" y="619" type="curve" smooth="yes"/>
      <point x="112" y="619"/>
      <point x="28" y="490"/>
      <point x="28" y="304" type="curve" smooth="yes"/>
      <point x="28" y="118"/>
      <point x="112" y="-11"/>
    </contour>
    <contour>
      <point x="231" y="42" type="curve" smooth="yes"/>
      <point x="159" y="42"/>
      <point x="118" y="145"/>
      <point x="118" y="304" type="curve" smooth="yes"/>
      <point x="118" y="462"/>
      <point x="159" y="567"/>
      <point x="231" y="567" type="curve" smooth="yes"/>
      <point x="303" y="567"/>
      <point x="344" y="462"/>
      <point x="344" y="304" type="curve" smooth="yes"/>
      <point x="344" y="144"/>
      <point x="303" y="42"/>
    </contour>
  </outline>
</glyph>
